<?xml version="1.0" standalone="no"?>
<!DOCTYPE svg PUBLIC "-//W3C//DTD SVG 20010904//EN"
 "http://www.w3.org/TR/2001/REC-SVG-20010904/DTD/svg10.dtd">
<svg version="1.0" xmlns="http://www.w3.org/2000/svg"
 width="800.000000pt" height="800.000000pt" viewBox="0 0 800.000000 800.000000"
 preserveAspectRatio="xMidYMid meet">
<metadata>
Created by potrace 1.11, written by Peter Selinger 2001-2013
</metadata>
<g transform="translate(0.000000,800.000000) scale(0.100000,-0.100000)"
fill="#000000" stroke="none">
<path d="M310 6460 l0 -1230 1230 0 1230 0 0 1230 0 1230 -1230 0 -1230 0 0
-1230z m2110 0 l0 -880 -880 0 -880 0 0 880 0 880 880 0 880 0 0 -880z"/>
<path d="M1010 6460 l0 -530 530 0 530 0 0 530 0 530 -530 0 -530 0 0 -530z"/>
<path d="M5230 6460 l0 -1230 1230 0 1230 0 0 1230 0 1230 -1230 0 -1230 0 0
-1230z m2110 0 l0 -880 -880 0 -880 0 0 880 0 880 880 0 880 0 0 -880z"/>
<path d="M5930 6460 l0 -530 530 0 530 0 0 530 0 530 -530 0 -530 0 0 -530z"/>
<path d="M3470 6810 l0 -180 355 0 355 0 0 180 0 180 -355 0 -355 0 0 -180z"/>
<path d="M4524 6977 c-2 -7 -3 -87 -2 -177 l3 -165 178 -3 177 -2 0 180 0 180
-175 0 c-134 0 -177 -3 -181 -13z"/>
<path d="M3120 6110 l0 -180 525 0 525 0 0 -175 0 -175 -175 0 -175 0 0 -175
0 -175 180 0 180 0 0 175 0 175 170 0 170 0 0 -525 0 -525 -520 0 -520 0 0
525 0 525 -180 0 -180 0 0 -350 0 -350 -350 0 -350 0 0 -180 0 -180 525 0 525
0 0 -345 0 -345 -175 0 -175 0 0 175 0 175 -350 0 -350 0 0 -180 0 -180 350 0
350 0 0 -175 0 -175 175 0 175 0 0 -175 0 -175 -175 0 -175 0 0 -350 0 -350
175 0 175 0 0 -175 0 -175 180 0 180 0 0 350 0 350 170 0 170 0 2 -527 3 -528
175 0 175 0 3 702 2 703 -350 0 -350 0 -2 178 -3 177 -172 3 -173 2 0 170 0
170 345 0 345 0 2 -172 3 -173 353 -3 352 -2 0 -175 0 -175 175 0 175 0 0
-175 0 -175 -175 0 -175 0 0 -175 0 -175 175 0 175 0 0 -175 0 -175 -175 0
-175 0 0 -350 0 -350 -177 -2 -178 -3 -3 -172 -2 -173 -345 0 -345 0 -2 173
-3 172 -172 3 -173 2 -2 173 -3 172 -177 3 -178 2 0 -355 0 -355 175 0 175 0
0 -350 0 -350 530 0 530 0 0 175 0 175 175 0 175 0 0 -175 0 -175 525 0 525 0
0 175 0 175 180 0 180 0 0 175 0 175 173 2 172 3 0 175 0 175 -175 0 -175 0
-3 -172 -2 -173 -350 0 -350 0 0 345 0 345 175 0 175 0 0 355 0 355 175 0 175
0 2 -352 3 -353 347 -3 348 -2 2 -173 3 -172 178 -3 177 -2 0 175 0 175 175 0
175 0 0 355 0 355 -700 0 -700 0 0 175 0 175 175 0 175 0 0 175 0 175 -355 0
-355 0 0 -175 0 -175 -175 0 -175 0 0 350 0 350 353 2 352 3 3 173 2 172 700
0 700 0 0 180 0 180 -175 0 -175 0 0 175 0 175 -355 0 -355 0 0 -175 0 -175
-175 0 -175 0 0 -175 0 -175 -350 0 -350 0 0 -175 0 -175 -175 0 -175 0 0 175
0 175 -175 0 -175 0 0 170 0 170 525 0 525 0 0 175 0 175 178 2 177 3 3 178 2
177 -180 0 -180 0 0 -175 0 -175 -175 0 -175 0 0 175 0 175 -350 0 -350 0 0
705 0 705 -177 -2 -178 -3 -3 -177 -2 -178 -170 0 -170 0 -2 178 -3 177 -527
3 -528 2 0 -180z m1400 -2110 l0 -170 -170 0 -170 0 0 170 0 170 170 0 170 0
0 -170z m-700 -1055 l0 -175 -170 0 -170 0 0 175 0 175 170 0 170 0 0 -175z
m1410 -1755 l0 -170 -175 0 -175 0 0 170 0 170 175 0 175 0 0 -170z m350 -355
l0 -175 -175 0 -175 0 0 175 0 175 175 0 175 0 0 -175z"/>
<path d="M1012 4703 l3 -178 172 -3 173 -2 2 -173 3 -172 353 -3 352 -2 0 180
0 180 -175 0 -175 0 0 175 0 175 -355 0 -355 0 2 -177z"/>
<path d="M310 4350 l0 -180 175 0 175 0 0 180 0 180 -175 0 -175 0 0 -180z"/>
<path d="M1017 3823 c-4 -3 -7 -82 -7 -175 l0 -168 -350 0 -350 0 0 -180 0
-180 355 0 355 0 0 175 0 175 170 0 170 0 0 -175 0 -175 180 0 180 0 -2 353
-3 352 -346 3 c-190 1 -348 -1 -352 -5z"/>
<path d="M2070 3300 l0 -180 350 0 350 0 0 180 0 180 -350 0 -350 0 0 -180z"/>
<path d="M6980 2945 l0 -175 355 0 355 0 0 175 0 175 -355 0 -355 0 0 -175z"/>
<path d="M310 1540 l0 -1230 1230 0 1230 0 0 1230 0 1230 -1230 0 -1230 0 0
-1230z m2110 0 l0 -880 -880 0 -880 0 0 880 0 880 880 0 880 0 0 -880z"/>
<path d="M1010 1540 l0 -530 530 0 530 0 0 530 0 530 -530 0 -530 0 0 -530z"/>
<path d="M7340 840 l0 -180 175 0 175 0 0 180 0 180 -175 0 -175 0 0 -180z"/>
<path d="M6630 485 l0 -175 180 0 180 0 0 175 0 175 -180 0 -180 0 0 -175z"/>
</g>
</svg>
